<svg width="28" height="24" viewBox="0 0 28 24" fill="none" xmlns="http://www.w3.org/2000/svg">
<path d="M18.89 3.24997C19.7738 2.34972 20.7123 1.50479 21.7 0.719971H14.22C4.32002 1.09997 6.30002 9.34997 6.74002 10.89C6.80002 11 6.80002 11.05 6.85002 11.16C7.24002 12.37 7.62002 13.53 8.12002 14.68C8.56002 15.61 8.94002 16.49 9.44002 17.43C9.44916 17.3126 9.48693 17.1993 9.55002 17.1C11.7433 11.9254 14.9147 7.22277 18.89 3.24997Z" fill="#D30535"/>
<path d="M27.59 0.590027C26.59 1.19003 25.59 1.91003 24.9 2.40003C24.57 2.68003 23.8 3.28003 23.8 3.28003L21.31 5.59003C17.6477 9.27471 14.7191 13.6218 12.68 18.4C12.2972 19.3149 11.9634 20.2496 11.68 21.2C11.46 21.8 11.24 22.41 11.07 23.01H18.99C27.59 23.03 27.59 14.46 27.59 14.46V0.590027Z" fill="#2E2D2C"/>
<path d="M7.89998 21.71C6.78651 19.8816 5.81049 17.973 4.97998 16C3.94726 13.5711 3.14701 11.0498 2.58998 8.46997C-1.97002 18.47 -0.320024 23.03 6.65998 23.03H8.74998L7.92998 21.71" fill="#2E2D2C"/>
</svg>
