<svg width="199" height="219" viewBox="0 0 199 219" fill="none" xmlns="http://www.w3.org/2000/svg">
<path d="M109.5 209.5C92.3925 209.501 75.571 205.113 60.6438 196.755C45.7166 188.398 33.1831 176.351 24.2417 161.766C15.3003 147.181 10.25 130.547 9.57385 113.452C8.89768 96.3584 12.6182 79.3767 20.3797 64.1312C28.1411 48.8857 39.6839 35.8863 53.9043 26.376C68.1247 16.8658 84.5471 11.1627 101.601 9.8121C118.655 8.46155 135.771 11.5087 151.311 18.6622C166.851 25.8156 180.296 36.8362 190.36 50.67C192.958 48.8225 195.677 47.152 198.5 45.67C185.011 26.8625 165.909 12.8129 143.937 5.53844C121.965 -1.73607 98.2527 -1.86139 76.205 5.18048C54.1574 12.2223 34.908 26.0692 21.2205 44.7331C7.53309 63.397 0.111516 85.9179 0.0213394 109.063C-0.0688372 132.207 7.17702 154.786 20.7186 173.555C34.2602 192.325 53.4011 206.322 75.3932 213.535C97.3853 220.749 121.098 220.808 143.126 213.705C165.154 206.602 184.364 192.702 198 174C195.197 172.513 192.494 170.842 189.91 169C180.615 181.577 168.496 191.794 154.529 198.828C140.562 205.863 125.138 209.518 109.5 209.5Z" fill="#2EACBB"/>
<path d="M160.71 91C159.481 94.3055 157.399 97.2273 154.677 99.469C151.954 101.711 148.687 103.193 145.207 103.764C141.727 104.336 138.158 103.978 134.861 102.725C131.564 101.473 128.657 99.3708 126.435 96.6325C124.213 93.8941 122.754 90.6168 122.206 87.1328C121.659 83.6489 122.043 80.0821 123.319 76.7943C124.594 73.5064 126.717 70.6143 129.471 68.4113C132.225 66.2083 135.512 64.7727 139 64.25C128.289 57.5269 115.539 54.8242 103.021 56.6234C90.5031 58.4227 79.0304 64.6069 70.6462 74.0747C62.2621 83.5424 57.5109 95.6789 57.239 108.322C56.9671 120.966 61.1921 133.295 69.1615 143.115C77.1308 152.934 88.3271 159.606 100.756 161.942C113.185 164.278 126.039 162.126 137.03 155.869C148.02 149.613 156.433 139.658 160.77 127.779C165.106 115.899 165.085 102.866 160.71 91ZM109.5 122C107.225 122 105.002 121.326 103.111 120.062C101.22 118.798 99.7458 117.002 98.8754 114.901C98.005 112.8 97.7772 110.487 98.221 108.256C98.6647 106.026 99.76 103.977 101.368 102.368C102.977 100.76 105.026 99.6647 107.256 99.221C109.487 98.7772 111.799 99.005 113.901 99.8754C116.002 100.746 117.798 102.22 119.062 104.111C120.326 106.002 121 108.226 121 110.5C121 113.55 119.788 116.475 117.632 118.632C115.475 120.788 112.55 122 109.5 122Z" fill="#2EACBB"/>
<path d="M110 20.5C92.4963 20.5 75.3858 25.6904 60.832 35.4149C46.2783 45.1394 34.935 58.9613 28.2366 75.1325C21.5383 91.3038 19.7857 109.098 23.2005 126.265C26.6153 143.433 35.0441 159.202 47.421 171.579C59.798 183.956 75.5672 192.385 92.7345 195.799C109.902 199.214 127.696 197.462 143.867 190.763C160.039 184.065 173.861 172.722 183.585 158.168C193.31 143.614 198.5 126.504 198.5 109C198.5 97.378 196.211 85.8698 191.763 75.1325C187.316 64.3952 180.797 54.639 172.579 46.4211C164.361 38.2031 154.605 31.6842 143.867 27.2367C133.13 22.7891 121.622 20.5 110 20.5ZM110 184.72C95.024 184.72 80.3843 180.279 67.9322 171.959C55.4801 163.639 45.7749 151.813 40.0438 137.977C34.3128 124.141 32.8132 108.916 35.7349 94.2278C38.6566 79.5395 45.8682 66.0475 56.4579 55.4579C67.0475 44.8682 80.5395 37.6566 95.2277 34.7349C109.916 31.8133 125.141 33.3128 138.977 39.0438C152.813 44.7749 164.639 54.4801 172.959 66.9322C181.279 79.3843 185.72 94.024 185.72 109C185.72 118.944 183.761 128.79 179.956 137.977C176.151 147.164 170.573 155.511 163.542 162.542C156.511 169.573 148.164 175.151 138.977 178.956C129.79 182.761 119.944 184.72 110 184.72Z" fill="white"/>
</svg>
