<svg width="55" height="50" viewBox="0 0 55 50" fill="none" xmlns="http://www.w3.org/2000/svg">
  <path d="M41.3958 0.772461H6.90306L0.634949 0.863241L6.96638 7.99402L6.88949 14.4076V35.3915C6.90497 38.9981 8.33935 42.4527 10.8804 45.003C13.4214 47.5533 16.8633 48.993 20.4568 49.0085H54.945V41.9549H37.2035L20.8774 23.5946H40.2561C41.6551 23.5946 42.353 22.4674 42.35 20.213C42.347 17.9587 41.649 16.833 40.2561 16.836H14.8716L8.03367 9.18324H40.6993C42.0475 9.13675 43.386 9.42724 44.5945 10.0286C45.8031 10.6299 46.8438 11.5233 47.6232 12.6283C49.2243 14.8244 50.0517 17.4929 49.9749 20.213C50.0527 22.9347 49.2253 25.6049 47.6232 27.8022C46.8433 28.9065 45.8024 29.7989 44.5938 30.3995C43.3853 31 42.0471 31.2898 40.6993 31.2428H37.7778L41.2375 35.1055H54.9767V14.4076C54.9671 10.7951 53.5334 7.33318 50.9887 4.7783C48.4439 2.22341 44.9951 0.783243 41.3958 0.772461Z" fill="#2BBADA"/>
  <path d="M37.7778 31.2428H40.6993C42.0471 31.2898 43.3853 31 44.5939 30.3995C45.8024 29.7989 46.8434 28.9065 47.6232 27.8022C49.2253 25.6049 50.0527 22.9347 49.9749 20.213C50.0517 17.4929 49.2244 14.8244 47.6232 12.6283C46.8439 11.5233 45.8031 10.6299 44.5946 10.0286C43.386 9.42722 42.0475 9.13674 40.6993 9.18322H8.03369L14.8716 16.836H40.2561C41.6551 16.836 42.353 17.9617 42.35 20.213C42.347 22.4644 41.649 23.5915 40.2561 23.5946H20.8774L37.2035 41.9549H54.9767V35.1055H41.2375L37.7778 31.2428Z" fill="white"/>
</svg>
