<svg width="30" height="30" viewBox="0 0 30 30" fill="none" xmlns="http://www.w3.org/2000/svg">
  <path fill-rule="evenodd" clip-rule="evenodd" d="M0 8.02614C0 3.59343 3.59342 0 8.02613 0H21.9739C26.4066 0 30 3.59343 30 8.02614C30 11.0123 28.3692 13.6176 25.9496 15C28.3692 16.3824 30 18.9877 30 21.9739C30 26.4066 26.4066 30 21.9739 30H8.02614C3.59342 30 0 26.4066 0 21.9739C0 18.9877 1.63082 16.3824 4.05043 15C1.63083 13.6176 0 11.0123 0 8.02614ZM8.02614 13.9477H16.5557C14.9528 12.4803 13.9476 10.3706 13.9476 8.02614C13.9476 5.68167 14.9528 3.57198 16.5557 2.10455H8.02613C4.75573 2.10455 2.10455 4.75574 2.10455 8.02614C2.10455 11.2965 4.75574 13.9477 8.02614 13.9477ZM13.4441 27.8954H21.9739C25.2443 27.8954 27.8954 25.2443 27.8954 21.9739C27.8954 18.7035 25.2443 16.0523 21.9739 16.0523H13.4441C15.0471 17.5197 16.0523 19.6294 16.0523 21.9739C16.0523 24.3183 15.0471 26.428 13.4441 27.8954Z" fill="#27312e"/>
</svg>
